# xmcd CD database file
#
# Track frame offsets:
#	150
#	19377
#	34500
#
# Disc length: 712 seconds
#
# Revision: 4
# Processed by: cddbd v1.5.2PL0 Copyright (c) Steve Scherf et al.
# Submitted via: CDex 1.70beta3
#
DISCID=1b02c603
DTITLE=久宝留理子 - 「男」
DYEAR=1993
DGENRE=JPop
TTITLE0=「男」
TTITLE1=Non Stop Seven Days
TTITLE2=「男」 （オリジナル・カラオケ）
EXTD=YEAR: 1993
EXTT0=
EXTT1=
EXTT2=
PLAYORDER=
